Coordinates
version=1
nRows=11
nColumns=36
inDegrees=yes

Units are S.I. units (second, meters, Newtons, ...)
If the header above contains a line with 'inDegrees', this indicates whether rotational values are in degrees (yes) or radians (no).

endheader
time	pelvis_tilt	pelvis_list	pelvis_rotation	pelvis_tx	pelvis_ty	pelvis_tz	hip_flexion_r	hip_adduction_r	hip_rotation_r	knee_angle_r	knee_angle_r_beta	ankle_angle_r	subtalar_angle_r	mtp_angle_r	hip_flexion_l	hip_adduction_l	hip_rotation_l	knee_angle_l	knee_angle_l_beta	ankle_angle_l	subtalar_angle_l	mtp_angle_l	lumbar_extension	lumbar_bending	lumbar_rotation	arm_flex_r	arm_add_r	arm_rot_r	elbow_flex_r	pro_sup_r	arm_flex_l	arm_add_l	arm_rot_l	elbow_flex_l	pro_sup_l
      1.75000000	     -8.07368155	      1.10403111	      0.77708947	     -0.09418296	      1.17581083	      0.08541257	      8.33926822	     -1.89101875	    -19.38529163	      0.13746881	      0.00239928	      9.45521835	     11.70978449	     -7.49999987	      8.49079532	      0.16559320	    -29.19062408	      0.09933278	      0.00173368	      8.90753400	     15.26298328	     -7.49999987	      3.41645827	     -3.14834573	     -4.14115465	     18.93632203	     -1.36929309	     18.67730659	    123.36784057	     97.41543921	     22.13489734	     -7.46637584	     28.57165849	    123.28823940	     78.20468075
      1.76666670	     -8.03622452	      1.05901013	      0.62940157	     -0.09484912	      1.17441031	      0.08543686	      8.34930930	     -1.82465862	    -19.46762085	      0.13730687	      0.00239646	      9.86775984	     12.14602443	     -7.49999987	      8.39900006	      0.07557235	    -29.41099050	      0.09854404	      0.00171992	      9.03227195	     15.60267708	     -7.49999987	      3.50287895	     -3.07932665	     -4.28788361	     19.16872205	     -1.27238451	     18.77359423	    123.18188269	    100.71660699	     21.99591574	     -7.45053591	     28.03134656	    123.04110911	     79.77695887
      1.78333330	     -7.89645315	      0.95655739	      0.53282592	     -0.09497465	      1.17528045	      0.08547100	      8.21991872	     -1.68180617	    -19.54368061	      0.13787553	      0.00240638	     10.11447832	     12.25460858	     -7.49999987	      8.26367859	     -0.04902582	    -29.47284954	      0.09778515	      0.00170667	      9.23477516	     15.88207727	     -7.49999987	      3.41712700	     -2.98704819	     -4.45474225	     19.30807815	     -1.23339560	     18.98581009	    123.39686554	    100.11974100	     21.93104896	     -7.42336082	     27.71548187	    122.88589124	     79.46531004
      1.80000000	     -7.84128670	      0.91585838	      0.36904020	     -0.09523815	      1.17527000	      0.08568124	      8.25720367	     -1.56518140	    -19.26418173	      0.13694602	      0.00239016	     10.15076389	     11.89726732	     -7.49999987	      8.11778506	     -0.12419919	    -29.86850669	      0.09768470	      0.00170492	      9.27174816	     16.19354650	     -7.49999987	      3.46376970	     -2.94395878	     -4.63767533	     19.31869212	     -1.18764067	     19.41562690	    123.79559384	     98.40207882	     21.71788233	     -7.51619026	     27.52153275	    123.02312042	     78.72274237
      1.81666670	     -7.73314662	      0.90936885	      0.21133427	     -0.09519360	      1.17575002	      0.08604569	      8.08000083	     -1.48855665	    -19.26206107	      0.13946348	      0.00243410	     10.09517484	     11.76948885	     -7.49999987	      7.95751207	     -0.16519578	    -29.84202437	      0.09747918	      0.00170133	      9.27310830	     15.82088584	     -7.49999987	      3.40109920	     -2.97933623	     -4.81923284	     19.24666052	     -1.15746098	     19.69592764	    124.47350285	     97.44719163	     21.44847799	     -7.56623664	     27.21124249	    123.25023572	     78.35386827
      1.83333330	     -7.70946823	      0.97543245	      0.07332170	     -0.09536945	      1.17615366	      0.08589519	      8.08002796	     -1.48205487	    -19.07232607	      0.13998708	      0.00244324	     10.23041192	     11.96274698	     -7.49999987	      7.84664835	     -0.11187596	    -30.04883062	      0.09810631	      0.00171228	      9.48794000	     16.16087397	     -7.49999987	      3.51570687	     -3.07269221	     -5.12328453	     19.32024649	     -1.02827364	     20.08299162	    124.89488095	    101.54431075	     21.15724837	     -7.71209745	     26.81350559	    123.22967880	     80.16578201
      1.85000000	     -7.55463908	      0.99424745	      0.00141902	     -0.09533211	      1.17592872	      0.08578232	      7.90336254	     -1.45174755	    -18.88469997	      0.13888949	      0.00242408	     10.41872418	     12.20849679	     -7.49999987	      7.67402437	     -0.06722491	    -30.11762844	      0.09805510	      0.00171138	      9.65030470	     16.28680544	     -7.49999987	      3.40359331	     -3.15323162	     -5.34972746	     19.45484436	     -1.07930082	     20.78048126	    125.66681860	     97.94687221	     21.05834975	     -7.83056049	     26.82366847	    123.44055823	     78.54434231
      1.86666670	     -7.59524309	      1.00812072	     -0.17242632	     -0.09395497	      1.17587541	      0.08586284	      7.89863937	     -1.42391794	    -18.78890356	      0.14129246	      0.00246602	     10.32629553	     12.25146259	     -7.49999987	      7.75993168	     -0.05482382	    -30.34256409	      0.09754779	      0.00170253	      9.76031359	     16.56328244	     -7.49999987	      3.56584432	     -3.18299709	     -5.58675063	     19.51619371	     -1.09134200	     21.32256950	    126.55984070	    101.55935769	     20.63350535	     -7.91420074	     26.49206074	    123.76035661	     80.21392384
      1.88333330	     -7.53992534	      0.98429353	     -0.31476919	     -0.09375221	      1.17498575	      0.08616310	      7.80554057	     -1.36640812	    -18.78523394	      0.14268008	      0.00249024	     10.35276535	     12.24497694	     -7.49999987	      7.78707132	     -0.06041236	    -30.31894096	      0.09643244	      0.00168306	      9.90906256	     16.70842975	     -7.49999987	      3.60799629	     -3.19934390	     -5.77037415	     19.68548090	     -1.11503662	     21.98634495	    127.52362777	    102.27774639	     20.36108191	     -7.99027366	     26.41391952	    124.05843882	     80.55588234
      1.90000000	     -7.64338776	      0.95252007	     -0.41355225	     -0.09327805	      1.17783022	      0.08609744	      7.96984244	     -1.33642435	    -18.77067500	      0.14276290	      0.00249168	     10.36529293	     12.44354642	     -7.49999987	      7.94194596	     -0.08012486	    -30.43503712	      0.09479934	      0.00165456	      9.85617182	     17.17655384	     -7.49999987	      3.88895431	     -3.22435992	     -5.96405821	     19.76548498	     -1.17023061	     22.73454238	    128.39314819	    102.53026229	     19.98020817	     -8.08150732	     26.33161653	    124.27466942	     80.92005649
      1.91666670	     -7.59253833	      0.87785197	     -0.54478641	     -0.09272115	      1.17793056	      0.08648923	      7.93436646	     -1.27769540	    -18.65100095	      0.14061318	      0.00245416	     10.49202568	     12.80769056	     -7.49999987	      7.92825386	     -0.14939264	    -30.44648222	      0.09362352	      0.00163404	      9.97106129	     17.59469933	     -7.49999987	      3.95688659	     -3.15745463	     -6.07484731	     19.93515538	     -1.22426166	     23.67809189	    129.12729395	    100.29542936	     19.71287596	     -8.18573733	     26.45322696	    124.56803633	     79.76146084
